<?xml version="1.0" standalone="no"?>
<!DOCTYPE svg PUBLIC "-//W3C//DTD SVG 20010904//EN"
 "http://www.w3.org/TR/2001/REC-SVG-20010904/DTD/svg10.dtd">
<svg version="1.0" xmlns="http://www.w3.org/2000/svg"
 width="734.000000pt" height="730.000000pt" viewBox="0 0 734.000000 730.000000"
 preserveAspectRatio="xMidYMid meet">

<g transform="translate(0.000000,730.000000) scale(0.100000,-0.100000)"
fill="#000000" stroke="none">
<path d="M1285 7249 c-281 -36 -541 -167 -760 -384 -193 -190 -316 -403 -378
-652 l-21 -88 -4 -2390 c-2 -1780 0 -2413 8 -2479 19 -142 56 -262 120 -391
86 -174 197 -314 365 -460 167 -145 397 -254 630 -297 85 -16 4609 -24 4785
-8 336 29 601 156 845 404 203 206 315 419 372 701 17 85 18 215 18 2475 0
2250 -1 2390 -18 2473 -55 268 -167 482 -357 680 -199 209 -423 338 -686 399
l-99 22 -2375 2 c-1340 1 -2405 -2 -2445 -7z m696 -1221 c95 -35 153 -72 220
-140 110 -112 162 -239 162 -393 -1 -331 -228 -544 -583 -547 -69 -1 -127 4
-170 15 -192 50 -345 183 -410 354 -28 73 -38 241 -21 326 44 206 227 371 455
408 28 4 103 6 166 4 91 -2 129 -8 181 -27z m3188 -1474 c224 -35 423 -133
589 -289 216 -203 341 -502 382 -914 6 -63 10 -486 10 -1087 l0 -984 -525 0
-525 0 0 913 c0 551 -4 948 -10 1002 -21 182 -74 318 -161 410 -90 96 -196
135 -364 135 -182 0 -273 -38 -405 -170 -94 -94 -140 -165 -167 -255 -16 -55
-18 -135 -21 -1057 l-2 -998 -533 0 -532 0 0 1615 0 1615 533 0 532 0 0 -216
0 -216 37 53 c186 274 460 429 818 463 65 6 243 -4 344 -20z m-2889 -1659 l0
-1615 -530 0 -530 0 0 1615 0 1615 530 0 530 0 0 -1615z"/>
<path d="M3955 4040 c-3 -5 -1 -10 4 -10 6 0 11 5 11 10 0 6 -2 10 -4 10 -3 0
-8 -4 -11 -10z"/>
</g>
</svg>
